PathFileType	4	(X/Y/Z)	C:/Users/beibeiliu/ov580/test_trc/User2\sequence.35_training_dense_left.trc
DataRate	CameraRate	NumFrames	NumMarkers	Units	OrigDataRate	OrigDataStartFrame	OrigNumFrames
120	120	21	19	mm	120	145	289
Frame#	Time	ThumbCMC			ThumbMCP			ThumbIP			ThumbTip			IndexMCP			IndexPIP			IndexTip			MiddleMCP			MiddlePIP			MiddleTip			RingMCP			RingPIP			RingTip			PinkyMCP			PinkyPIP			PinkyTip			BackHand1			BackHand2			BackHand3	
		X0	Y0	Z0	X1	Y1	Z1	X2	Y2	Z2	X3	Y3	Z3	X4	Y4	Z4	X5	Y5	Z5	X6	Y6	Z6	X7	Y7	Z7	X8	Y8	Z8	X9	Y9	Z9	X10	Y10	Z10	X11	Y11	Z11	X12	Y12	Z12	X13	Y13	Z13	X14	Y14	Z14	X15	Y15	Z15	X16	Y16	Z16	X17	Y17	Z17	X18	Y18	Z18	
144	1.2	-201.425	-59.8533	74.4747	-191.747	-56.4855	40.8734	-171.928	-66.5264	13.4825	-152.079	-89.1929	5.39739	-170.601	-115.346	13.6945	-136.81	-114.819	7.46292	-130.912	-89.971	34.8318	-162.109	-138.249	22.2354	-126.77	-132.846	20.4524	-128.987	-101.123	48.8227	-153.765	-150.982	35.527	-126.244	-145.13	35.0879	-129.637	-115.963	62.627	-156.093	-154.623	61.3401	-123.387	-147.274	55.1981	-123.087	-123.644	73.6044	-200.387	-130.319	77.1766	-216.619	-119.729	105.598	-213.2	-97.2859	70.7661	
145	1.20833	-203.828	-62.4376	68.3232	-194.298	-59.7501	39.839	-175.391	-69.2606	9.65293	-156.246	-85.5067	-1.50601	-166.459	-119.042	11.9097	-136.504	-117.607	7.90861	-130.619	-92.7498	32.4872	-159.665	-139.543	24.6353	-124.948	-132.666	22.7981	-130.03	-98.9546	50.114	-154.928	-149.769	39.7258	-122.635	-143.284	38.4874	-130.444	-114.242	61.279	-150.145	-160.171	61.6201	-120.354	-147.941	57.7593	-123.255	-121.002	76.6449	-196.924	-133.267	81.2652	-215.274	-122.112	106.966	-214.259	-98.1536	72.4666	
146	1.21667	-203.256	-66.7505	71.2822	-194.644	-63.9468	40.7278	-181.135	-65.7164	7.87461	-161.26	-82.2725	-4.88705	-166.348	-121.831	14.3855	-136.802	-116.988	6.75727	-134.053	-89.0465	36.1304	-159.586	-138.866	23.0147	-123.632	-131.075	23.6752	-129.489	-101.158	49.8167	-150.435	-152.277	38.9866	-119.578	-139.581	39.8929	-127.01	-115.102	60.7854	-148.275	-157.744	64.5597	-120.272	-144.782	56.4121	-125.346	-115.901	75.0793	-196.132	-133.138	82.0797	-214.061	-122.781	105.953	-216.058	-103.43	73.2364	
147	1.225	-204.101	-67.0466	68.6431	-197.411	-62.3793	38.3135	-181.855	-71.8017	9.66446	-166.138	-80.1749	-12.3981	-168.23	-120.206	12.933	-135.672	-117.737	8.76198	-132.814	-91.8256	33.9055	-156.371	-141.571	25.6362	-123.793	-131.211	22.9829	-128.774	-101.745	49.7475	-150.635	-153.161	43.3546	-121.236	-139.544	38.8545	-129.765	-113.209	64.1101	-147.753	-159.188	65.7409	-118.929	-140.97	58.132	-126.116	-114.973	78.0053	-194.371	-136.751	81.8081	-215.337	-118.686	108.329	-215.422	-99.4238	71.8474	
148	1.23333	-207.059	-64.7185	69.5255	-198.384	-65.0288	37.7563	-184.974	-70.594	8.44206	-169.267	-76.8845	-14.4913	-168.213	-121.4	15.704	-135.294	-119.888	11.2944	-134.129	-92.6884	38.6476	-158.842	-139.095	23.5443	-123.514	-129.386	22.8443	-130.484	-102.316	53.0504	-148.97	-153.888	43.1662	-121.112	-140.567	39.117	-131.648	-111.021	60.5528	-148.349	-156.675	65.0801	-119.141	-140.645	57.4205	-126.527	-114.755	78.6559	-194.621	-136.003	81.0547	-217.294	-117.486	107.188	-215.439	-102.094	71.3949	
149	1.24167	-205.949	-66.5463	70.6913	-200.516	-60.4743	38.827	-186.578	-69.5739	4.41819	-171.102	-78.8116	-15.5388	-164.657	-122.488	13.3146	-135.752	-120.79	11.7864	-136.46	-89.9897	37.0095	-160.402	-138.163	24.1796	-123.629	-132.471	22.5585	-131.847	-98.8682	51.2036	-151.431	-151.027	39.931	-120.888	-140.435	39.698	-127.472	-114.631	61.9038	-150.173	-155.323	65.9125	-119.481	-145.715	58.7124	-125.792	-117.494	78.3236	-195.986	-136.809	81.952	-214.367	-121.04	108.551	-216.961	-100.002	70.3819	
150	1.25	-205.161	-68.2088	68.7295	-198.369	-64.0267	36.9424	-187.77	-66.3684	7.29916	-173.182	-73.2899	-15.3444	-167.706	-121.517	15.4123	-134.195	-115.719	9.47832	-134.667	-92.8435	37.9069	-157.718	-141.718	24.4279	-123.065	-130.847	25.8969	-128.371	-102.91	49.5458	-151.315	-151.022	37.0131	-121.964	-140.466	39.082	-130.474	-113.961	60.8454	-149.837	-158.854	64.8644	-120.262	-143.132	58.1984	-125.172	-115.43	78.2771	-198.381	-132.738	82.9337	-214.244	-119.215	106.506	-217.635	-100.534	70.6168	
151	1.25833	-206.315	-63.6006	65.9887	-196.94	-64.2769	39.9717	-185.63	-67.6605	4.33382	-169.795	-76.4327	-12.5631	-169.8	-119.648	14.6271	-136.511	-117.135	9.38342	-136.12	-91.9325	37.3284	-161.094	-139.638	25.4163	-124.406	-131.412	23.0068	-131.372	-100.863	50.6944	-151.218	-152.351	37.6351	-123.549	-139.335	38.3865	-129.749	-114.368	60.0707	-151.158	-155.758	60.8559	-120.92	-143.838	57.8545	-125.002	-118.659	76.5341	-198.733	-136.508	80.4266	-215.259	-120.347	106.383	-214.557	-103.124	69.9198	
152	1.26667	-203.712	-61.4843	67.7971	-195.204	-56.9351	42.122	-183.092	-62.615	8.20605	-168.072	-72.5512	-11.2442	-169.35	-115.884	10.646	-137.386	-112.773	7.29387	-135.118	-91.7513	34.8865	-162.542	-137.793	21.5082	-127.235	-128.956	19.9057	-132.213	-103.005	50.8332	-156.82	-148.855	36.7699	-126.367	-141.155	36.6374	-135.321	-113.752	62.8821	-153.849	-158.143	61.3652	-125.523	-141.993	54.7286	-131.138	-118.673	75.2982	-201.536	-131.037	80.6239	-219.304	-115.056	102.923	-216.696	-97.4795	71.2586	
153	1.275	-199.816	-58.9239	70.8836	-191.551	-51.9715	40.6664	-177.14	-62.4526	11.3971	-162.439	-71.2011	-7.22692	-173.057	-113.36	13.1787	-137.561	-111.566	7.58331	-138.222	-91.807	38.3526	-165.329	-133.404	14.8303	-130.625	-130.259	19.4126	-134.975	-101.936	48.2898	-161.789	-149.765	36.3578	-128.567	-140.06	35.5918	-135.493	-115.099	58.0187	-160.532	-153.929	55.6103	-128.259	-144.327	54.4265	-133.036	-121.961	74.4988	-203.557	-130.93	75.5321	-221.423	-112.857	104.073	-218.426	-91.845	71.3045	
154	1.28333	-194.371	-54.2606	73.2584	-183.055	-46.5688	41.3924	-167.71	-57.7642	9.79289	-154.686	-75.7107	-1.16767	-172.665	-106.874	6.0641	-142.197	-113.804	7.69169	-136.68	-95.4821	36.5761	-171.873	-130.217	15.0354	-135.836	-128.969	15.1598	-137.539	-103.865	49.2573	-169.977	-141.736	29.6366	-135.667	-142.028	33.9384	-139.881	-118.627	59.3539	-170.143	-154.281	52.5951	-136.992	-145.411	47.5939	-136.597	-128.021	71.6056	-210.281	-120.962	72.5977	-223.901	-106.114	102.557	-215.063	-83.1038	67.8868	
155	1.29167	-187.874	-47.5234	79.3858	-173.627	-46.242	48.7111	-158.037	-52.0436	17.6537	-147.875	-74.1789	-0.507462	-174.809	-95.3914	7.4767	-142.591	-108.057	3.90637	-135.356	-94.3215	36.9822	-177.773	-120.853	11.0105	-139.779	-126.215	14.5777	-138.678	-109.371	48.3073	-177.191	-136.084	23.8847	-145.721	-144.361	26.613	-143.821	-120.604	56.1197	-178.209	-148.414	43.1926	-146.368	-149.541	44.7154	-140.543	-131.234	69.5085	-215.865	-111.277	68.6481	-228.735	-95.8431	99.1533	-216.562	-75.0044	71.7009	
156	1.3	-180.005	-44.8365	81.0601	-164.707	-41.7388	55.679	-147.934	-48.3088	22.4032	-138.494	-68.3555	4.80669	-175.378	-93.4059	8.28881	-148.538	-108.386	4.64494	-136.829	-98.2646	37.0453	-181.617	-115.187	7.96635	-148.4	-127.561	11.1591	-143.746	-111.904	49.6815	-185.547	-133.099	19.5163	-153.934	-137.677	21.775	-151.083	-122.241	54.9261	-190.287	-138.691	41.7773	-159.072	-147.016	37.9248	-147.892	-136.815	68.0429	-218.509	-103.022	66.6175	-228.146	-87.1476	96.1773	-211.78	-67.6299	69.9873	
157	1.30833	-173.886	-40.2764	88.1611	-154.966	-38.7651	64.3352	-138.475	-46.0533	29.4588	-135.533	-69.1288	12.1466	-174.669	-80.3037	8.15343	-151.682	-101.662	2.51182	-137.357	-96.8428	37.1935	-187.92	-103.761	9.33828	-153.839	-121.846	7.76084	-149.811	-110.708	48.9511	-193.526	-123.605	18.0346	-164.248	-134.066	17.8295	-159.304	-121.846	52.9129	-199.295	-133.108	35.3619	-168.853	-143.709	32.7136	-158.444	-132.642	61.6827	-223.126	-95.5006	65.24	-231.118	-81.2314	96.8882	-207.487	-55.0862	74.3601	
158	1.31667	-170.701	-43.075	89.5014	-148.616	-38.1447	64.9828	-133.921	-47.1672	38.0777	-129.965	-66.3793	16.7556	-175.596	-75.8271	8.19343	-153.109	-97.9279	2.82978	-141.724	-98.1835	36.6608	-187.13	-94.5551	3.69017	-161.466	-116.365	2.61589	-153.748	-112.246	43.3106	-197.431	-114.241	11.6385	-170.56	-128.041	13.0182	-163.928	-122.503	47.4625	-206.594	-125.351	30.6512	-179.52	-141.908	27.8746	-166.425	-134.613	59.4558	-223.868	-84.9512	67.998	-233.076	-74.2399	97.5807	-206.117	-49.7778	75.1919	
159	1.325	-167.404	-40.8865	94.2548	-144.202	-37.6162	67.0679	-129.258	-47.1893	36.7139	-129.609	-68.6381	17.8238	-173.359	-65.4976	10.5283	-152.531	-93.6354	2.06759	-145.555	-97.118	34.0537	-191.9	-86.5427	6.12456	-165.753	-113.423	2.9249	-156.572	-107.808	41.9918	-202.498	-104.963	12.3847	-175.101	-121.083	9.08898	-168.573	-115.996	44.444	-210.728	-114.5	28.5853	-184.277	-131.922	23.2069	-168.834	-131.313	50.3072	-227.075	-76.9487	66.5392	-233.82	-67.2466	95.309	-205.942	-47.2146	75.6276	
160	1.33333	-167.63	-42.0615	96.7034	-143.257	-38.4964	72.0118	-125.513	-47.8833	40.6459	-132.046	-71.5003	18.1113	-176.439	-63.9682	9.08063	-156.916	-88.0747	-1.04387	-145.698	-94.3356	35.5935	-189.692	-80.314	3.1345	-166.982	-107.274	1.88051	-160.939	-104.684	43.6366	-204.666	-95.1185	12.1635	-180.433	-120.507	9.26009	-173.385	-115.297	41.5713	-216.259	-109.542	28.1204	-187.812	-130.904	21.3775	-174.13	-126.863	51.5136	-224.563	-68.8785	61.8018	-230.151	-60.3845	96.0171	-203.276	-39.9014	78.8525	
161	1.34167	-167.674	-41.0441	96.8536	-139.539	-37.3914	73.2489	-126.758	-49.7771	41.6003	-133.855	-71.1928	20.4515	-173.938	-57.293	10.805	-157.684	-82.3265	-2.79793	-149.692	-93.1753	34.351	-192.749	-75.8161	6.87192	-171.472	-105.085	0.940781	-163.515	-105.531	41.264	-207.447	-92.3356	8.63062	-183.72	-111.998	5.47008	-177.705	-111.186	42.9131	-219.426	-103.575	28.1566	-194.166	-122.478	17.3271	-181.07	-128.569	47.1494	-226.436	-66.8426	62.2991	-234.55	-60.5396	94.2527	-205.579	-40.8293	77.7543	
162	1.35	-168.251	-40.5703	95.8342	-141.12	-37.7303	72.3274	-125.251	-48.4471	43.8722	-135.702	-69.689	24.076	-174.601	-54.0071	10.0414	-159.923	-84.6904	-0.247131	-150.604	-92.0787	34.6642	-192.775	-73.1628	3.09498	-168.473	-101.521	1.05584	-162.418	-102.38	39.6628	-205.43	-88.022	6.8149	-187.545	-110.399	5.03877	-178.856	-110.337	39.8011	-221.409	-99.6726	23.8148	-197.942	-123.021	15.9014	-183.255	-124.889	48.7803	-228.013	-63.3723	64.5182	-233.968	-56.14	94.1268	-201.909	-35.3217	81.0492	
163	1.35833	-165.953	-38.8933	95.4565	-142.039	-37.5426	75.621	-127.592	-48.8907	39.4212	-137.322	-69.756	22.9274	-175.067	-53.8891	10.1422	-161.588	-82.5595	-0.810465	-152.661	-91.7508	31.6477	-192.096	-69.2351	3.46095	-175.437	-99.0993	-1.32368	-164.367	-101.925	37.1104	-209.618	-83.7276	9.84581	-189.451	-105.924	2.10951	-178.838	-105.722	39.1475	-221.522	-94.5415	25.6362	-199.882	-116.691	14.0922	-187.741	-122.711	42.1858	-229.88	-58.8729	65.1014	-231.748	-50.9852	97.3388	-200.584	-34.1852	82.8141	
164	1.36667	-166.405	-40.5487	94.9843	-141.126	-39.135	75.6852	-130.288	-51.03	42.3733	-139.006	-69.686	22.1737	-173.562	-52.3912	8.07342	-159.987	-79.9813	-2.23039	-154.582	-90.5228	30.1403	-191.986	-65.0092	4.83158	-175.528	-98.1994	-1.01878	-169.103	-101.283	39.4317	-209.858	-81.0221	8.35983	-193.321	-107.117	2.13166	-181.262	-106.523	35.6883	-225.695	-92.6956	25.6029	-200.348	-113.337	13.876	-187.085	-117.641	44.2199	-228.806	-58.074	65.4264	-235.243	-50.7604	98.6941	-200.709	-32.9002	78.9068	
